<?xml version="1.0" standalone="no"?>
<!DOCTYPE svg PUBLIC "-//W3C//DTD SVG 20010904//EN"
 "http://www.w3.org/TR/2001/REC-SVG-20010904/DTD/svg10.dtd">
<svg version="1.0" xmlns="http://www.w3.org/2000/svg"
 width="500.000000pt" height="500.000000pt" viewBox="0 0 500.000000 500.000000"
 preserveAspectRatio="xMidYMid meet">
<metadata>
Created by potrace 1.14, written by Peter Selinger 2001-2017
</metadata>
<g transform="translate(0.000000,500.000000) scale(0.100000,-0.100000)"
fill="#000000" stroke="none">
<path d="M2184 4028 c-11 -60 -6 -114 16 -187 18 -61 18 -91 -2 -91 -5 0 -6
-4 -3 -10 3 -5 2 -10 -4 -10 -5 0 -13 -20 -17 -45 -5 -33 -2 -51 10 -70 33
-50 11 -62 -34 -17 -20 21 -28 38 -28 68 -1 33 -45 179 -59 194 -8 8 8 -71 24
-123 21 -64 11 -70 -18 -10 -34 70 -59 104 -71 97 -7 -5 -8 -2 -3 5 8 14 -13
101 -26 101 -4 0 -6 8 -5 18 2 9 0 26 -4 37 -5 11 -7 -13 -4 -55 6 -98 9 -124
19 -139 16 -26 17 -82 2 -99 -8 -9 -13 -27 -11 -39 2 -13 0 -23 -5 -23 -8 0
-5 -80 4 -107 2 -7 2 -19 -1 -27 -7 -19 -32 6 -68 67 -33 55 -51 71 -72 63
-14 -5 -14 -7 0 -22 9 -8 16 -24 16 -33 0 -10 9 -39 20 -65 23 -51 15 -86 -20
-86 -28 0 -51 51 -53 121 -1 34 -3 56 -5 50 -3 -9 -7 -9 -18 0 -11 9 -16 6
-24 -15 -15 -40 -15 -109 0 -133 12 -18 12 -26 0 -47 l-13 -26 -33 34 c-42 44
-80 51 -120 23 -46 -31 -59 -55 -40 -75 8 -10 19 -29 25 -45 6 -15 16 -27 23
-28 7 0 53 -45 102 -100 86 -97 120 -118 132 -84 8 19 -12 49 -71 112 -28 30
-41 49 -33 52 22 7 29 25 23 58 -4 20 0 44 9 62 15 27 18 29 45 18 46 -17 94
1 106 41 8 29 25 45 25 23 0 -14 29 -22 55 -15 20 5 22 9 15 29 -11 30 -5 35
34 28 32 -5 96 19 96 36 0 4 19 8 43 8 24 0 49 3 56 8 7 4 31 9 53 11 22 1 45
7 51 13 6 6 23 11 39 11 37 0 78 20 78 38 0 8 12 1 30 -18 28 -30 34 -32 71
-26 23 4 46 3 53 -2 6 -5 23 -12 39 -14 l27 -5 0 83 c0 45 4 85 9 88 5 3 11
15 14 27 6 21 5 21 -10 6 -15 -15 -17 -15 -28 6 -6 12 -19 23 -30 25 -18 2
-20 -4 -22 -50 -3 -64 -22 -148 -33 -148 -20 0 -48 54 -60 112 -15 77 -25 98
-49 98 -19 0 -31 -48 -31 -129 0 -51 -12 -67 -34 -46 -29 29 -46 73 -66 168
-40 188 -73 267 -110 267 -14 0 -20 -11 -26 -42z m55 13 c10 -18 61 -223 61
-244 0 -19 -27 26 -38 63 -6 19 -18 54 -26 77 -28 76 -36 123 -20 123 7 0 18
-8 23 -19z m39 -383 c34 -66 27 -102 -12 -59 -19 21 -34 101 -20 101 5 0 19
-19 32 -42z m-214 -51 c30 -39 34 -51 26 -67 -6 -11 -17 -20 -25 -20 -16 0
-44 48 -51 88 -5 24 2 59 10 51 2 -2 20 -26 40 -52z m-401 -256 c39 -73 22
-86 -32 -25 -46 53 -54 87 -19 82 16 -2 32 -20 51 -57z"/>
<path d="M2420 3997 c0 -27 13 -41 50 -52 22 -6 23 -6 8 6 -9 8 -18 25 -20 39
-4 34 -38 40 -38 7z"/>
<path d="M3243 3863 c-22 -27 -50 -65 -62 -85 -12 -21 -26 -38 -29 -38 -14 0
-102 29 -124 41 -22 12 -22 12 -7 -12 9 -13 36 -30 63 -38 26 -8 46 -21 46
-28 0 -8 5 -11 13 -8 6 4 3 -1 -8 -10 -11 -9 -19 -23 -17 -30 4 -21 -38 -74
-71 -92 l-28 -14 6 38 c4 21 9 50 11 66 4 20 1 28 -13 33 -10 3 -36 14 -59 25
-45 21 -74 24 -74 9 0 -5 -6 -10 -13 -10 -7 0 -19 -10 -27 -21 -8 -12 -21 -27
-27 -35 -7 -7 -13 -17 -13 -22 0 -14 -41 -63 -49 -58 -3 3 -4 44 0 93 10 131
-14 164 -50 67 -23 -60 -30 -149 -14 -165 17 -17 86 -29 99 -18 9 7 14 4 19
-11 8 -24 54 -50 90 -50 52 0 30 -26 -90 -103 -88 -58 -113 -86 -121 -138 -5
-32 -3 -37 33 -62 21 -15 52 -29 68 -33 26 -5 36 0 72 36 22 23 49 63 58 88
10 26 22 52 27 59 5 6 17 38 26 70 17 60 92 168 78 113 -15 -58 -18 -118 -7
-139 7 -12 26 -27 44 -35 27 -12 35 -12 54 0 30 19 30 19 36 -16 7 -32 56 -70
92 -70 31 0 65 28 84 69 15 33 19 36 49 31 l33 -5 -71 -70 c-73 -72 -85 -101
-50 -122 17 -11 23 -7 56 32 21 26 58 55 91 71 76 38 88 20 26 -40 -26 -25
-60 -59 -76 -74 -39 -38 -45 -69 -18 -95 19 -19 21 -19 21 -4 0 10 26 46 59
81 32 35 64 73 70 84 26 48 -16 99 -70 85 -24 -7 -24 -7 -6 21 21 31 16 58
-10 55 -10 0 -33 -1 -50 0 -30 1 -32 3 -27 29 6 32 -21 54 -55 45 -26 -7 -28
-39 -4 -65 16 -17 15 -21 -13 -61 -34 -49 -67 -59 -84 -26 -18 33 -4 78 40
130 22 26 40 52 40 57 0 20 -46 -1 -80 -37 -39 -41 -99 -86 -106 -79 -10 11
-5 59 15 138 17 68 28 92 58 122 20 21 45 40 54 43 17 6 133 -10 166 -22 16
-6 16 -5 5 10 -8 9 -39 21 -70 27 -88 17 -84 13 -61 75 29 78 19 88 -16 16
-19 -42 -34 -61 -47 -61 -23 0 -23 0 12 73 35 72 51 99 65 109 6 5 3 8 -7 8
-9 0 -34 -21 -55 -47z m-23 -172 c0 -12 -20 -25 -27 -18 -7 7 6 27 18 27 5 0
9 -4 9 -9z m-226 -38 c-14 -60 -67 -143 -90 -143 -22 0 -37 48 -24 83 13 38
49 70 72 64 10 -3 16 -1 13 3 -5 8 9 17 28 19 4 1 4 -11 1 -26z m83 -145 c-3
-8 -6 -5 -6 6 -1 11 2 17 5 13 3 -3 4 -12 1 -19z m277 -103 c-4 -8 -10 -12
-15 -9 -14 8 -10 24 6 24 9 0 12 -6 9 -15z m-462 -32 c-5 -28 -52 -112 -80
-145 -8 -10 -28 -18 -44 -18 -25 0 -28 3 -28 34 0 18 9 45 20 59 19 24 117 96
131 97 3 0 4 -12 1 -27z"/>
<path d="M1570 3260 c0 -5 5 -10 11 -10 5 0 7 5 4 10 -3 6 -8 10 -11 10 -2 0
-4 -4 -4 -10z"/>
<path d="M1582 3215 c0 -16 2 -22 5 -12 2 9 2 23 0 30 -3 6 -5 -1 -5 -18z"/>
<path d="M2052 3179 c-7 -12 -10 -24 -6 -27 4 -4 9 -1 11 6 3 7 11 19 20 27
11 12 12 15 1 15 -7 0 -19 -9 -26 -21z"/>
<path d="M2150 3186 c0 -2 8 -10 18 -17 15 -13 16 -12 3 4 -13 16 -21 21 -21
13z"/>
<path d="M2430 3160 c0 -23 4 -30 20 -30 11 0 20 -4 20 -10 0 -21 18 -9 27 18
14 39 6 52 -33 52 -31 0 -34 -3 -34 -30z"/>
<path d="M2254 3089 c-3 -5 9 -9 25 -9 17 0 31 2 31 4 0 8 -51 13 -56 5z"/>
<path d="M2034 3066 c-3 -8 -4 -29 -2 -48 3 -29 4 -27 8 15 5 48 3 58 -6 33z"/>
<path d="M1770 2995 c0 -2 17 -13 38 -25 34 -21 36 -21 19 -2 -16 17 -57 37
-57 27z"/>
<path d="M3009 2960 c-15 -9 -18 -32 -10 -82 1 -5 12 -8 24 -8 28 0 70 40 49
47 -6 3 -10 9 -7 13 3 5 -12 7 -32 4 l-38 -5 28 16 c15 9 27 18 27 20 0 8 -24
5 -41 -5z"/>
<path d="M1955 2940 c-16 -7 -17 -9 -3 -9 9 -1 20 4 23 9 7 11 7 11 -20 0z"/>
<path d="M3170 2878 c0 -19 25 -41 40 -36 6 2 0 14 -14 27 -20 19 -26 21 -26
9z"/>
<path d="M1662 2818 c-17 -17 -15 -32 6 -51 27 -25 42 -21 42 11 0 26 -15 52
-30 52 -3 0 -11 -5 -18 -12z"/>
<path d="M3290 2766 c0 -21 34 -46 50 -36 11 7 11 11 2 23 -17 20 -52 29 -52
13z"/>
<path d="M3424 2690 c-36 -14 -37 -28 -2 -21 17 4 33 12 36 19 4 14 -4 14 -34
2z"/>
<path d="M2356 2677 c-26 -19 -17 -51 16 -55 19 -2 30 3 38 18 23 42 -13 67
-54 37z"/>
<path d="M2590 2655 c-10 -12 -10 -18 0 -30 25 -30 88 -6 74 28 -8 21 -57 23
-74 2z"/>
<path d="M3520 2645 c13 -16 50 -21 50 -6 0 10 -24 21 -47 21 -13 0 -13 -3 -3
-15z"/>
<path d="M3284 2636 c-10 -8 -16 -17 -13 -20 3 -3 14 1 25 8 10 8 16 17 13 20
-3 3 -14 -1 -25 -8z"/>
<path d="M3397 2644 c-8 -9 11 -44 23 -44 6 0 10 6 10 14 0 16 -24 38 -33 30z"/>
<path d="M1702 2581 c-7 -19 -10 -36 -8 -38 8 -8 27 38 24 55 -3 11 -8 5 -16
-17z"/>
<path d="M3190 2551 c-5 -11 -10 -25 -10 -32 0 -18 27 7 33 31 7 26 -9 26 -23
1z"/>
<path d="M3610 2552 c0 -5 6 -17 14 -28 19 -25 31 -12 14 15 -13 21 -28 28
-28 13z"/>
<path d="M3408 2460 c-9 -17 -13 -30 -9 -30 14 0 33 28 29 44 -2 11 -8 7 -20
-14z"/>
<path d="M1657 2437 l-19 -32 26 24 c26 24 33 41 19 41 -5 0 -16 -15 -26 -33z"/>
<path d="M3180 2434 c0 -17 17 -36 24 -26 3 5 -1 15 -9 22 -8 7 -15 9 -15 4z"/>
<path d="M2426 2372 c-14 -26 -13 -32 2 -63 25 -51 61 -51 101 -1 49 63 44 73
-46 87 -39 6 -43 5 -57 -23z"/>
<path d="M3300 2385 c-7 -9 -10 -18 -7 -21 10 -11 37 5 37 21 0 19 -14 19 -30
0z"/>
<path d="M1649 2373 c-12 -15 -12 -16 4 -10 10 4 23 7 28 7 5 0 9 5 9 10 0 16
-26 12 -41 -7z"/>
<path d="M1750 2380 c0 -5 10 -10 22 -10 12 0 30 -7 40 -17 16 -15 18 -15 18
0 0 9 -9 21 -19 27 -25 13 -61 13 -61 0z"/>
<path d="M1600 2325 c0 -8 2 -15 4 -15 2 0 6 7 10 15 3 8 1 15 -4 15 -6 0 -10
-7 -10 -15z"/>
<path d="M1529 2281 c-17 -17 -32 -61 -21 -61 4 0 17 16 29 35 24 36 19 53 -8
26z"/>
<path d="M1867 2271 c3 -10 -3 -34 -13 -52 l-17 -34 22 19 c21 19 29 70 12 80
-5 4 -7 -2 -4 -13z"/>
<path d="M1620 2185 c7 -8 20 -15 29 -15 13 1 13 3 -3 15 -26 19 -42 19 -26 0z"/>
<path d="M2470 2181 l-65 -6 35 -22 c41 -27 58 -28 88 -7 20 14 31 46 15 42
-5 -1 -37 -4 -73 -7z"/>
<path d="M1763 2149 c-41 -12 -42 -19 -4 -19 16 0 31 6 35 15 3 8 4 15 3 14
-1 0 -17 -5 -34 -10z"/>
<path d="M1495 2120 c5 -7 12 -27 16 -44 7 -29 8 -29 6 8 -1 24 -8 41 -16 44
-9 3 -11 0 -6 -8z"/>
<path d="M1590 1990 c29 -23 50 -26 50 -6 0 16 -21 26 -53 26 -21 0 -21 -1 3
-20z"/>
<path d="M3082 1929 c-18 -7 -22 -14 -17 -31 4 -13 13 -29 21 -37 17 -19 44 2
44 34 0 31 -20 45 -48 34z"/>
<path d="M2050 1911 c-48 -13 -34 -83 15 -73 37 7 50 27 37 57 -12 27 -13 27
-52 16z"/>
<path d="M2924 1898 c-19 -21 -19 -21 1 -13 11 4 30 10 42 12 13 3 20 9 17 14
-10 16 -40 9 -60 -13z"/>
<path d="M2760 1870 c-11 -7 -4 -10 28 -10 23 0 42 5 42 10 0 13 -50 13 -70 0z"/>
<path d="M2593 1823 c-6 -21 -10 -39 -9 -40 8 -8 36 26 38 46 5 39 -16 34 -29
-6z"/>
<path d="M2355 1789 c-4 -22 -3 -45 1 -49 5 -5 10 13 12 41 3 60 -4 64 -13 8z"/>
<path d="M2403 1747 c-32 -14 -29 -29 5 -21 34 8 38 12 26 23 -5 5 -19 4 -31
-2z"/>
<path d="M2515 1750 c-7 -11 57 -40 86 -40 11 0 19 5 19 10 0 6 -1 10 -2 10
-2 0 -24 7 -50 15 -28 8 -50 10 -53 5z"/>
<path d="M2082 1713 c2 -12 14 -19 36 -21 36 -4 41 4 15 24 -26 20 -55 18 -51
-3z"/>
<path d="M2530 1708 c0 -9 -11 -25 -25 -36 -33 -26 -32 -29 10 -24 28 3 35 9
35 26 0 11 -5 28 -10 36 -8 13 -10 13 -10 -2z"/>
<path d="M2236 1685 c-15 -11 -16 -15 -5 -15 8 0 24 7 35 15 14 11 15 14 4 14
-8 0 -24 -6 -34 -14z"/>
<path d="M2701 1691 c-19 -12 24 -41 61 -41 38 0 35 15 -4 31 -18 7 -35 14
-38 16 -3 1 -11 -1 -19 -6z"/>
<path d="M2850 1665 c-10 -12 -10 -15 3 -15 23 0 47 11 47 21 0 15 -37 10 -50
-6z"/>
<path d="M1636 1610 c-35 -77 -67 -170 -58 -170 3 0 1 -5 -6 -12 -19 -19 -14
-56 8 -63 23 -7 50 15 50 40 0 25 27 72 52 91 16 11 17 15 6 11 -22 -8 -22 2
-3 77 12 44 13 62 4 72 -19 23 -25 17 -53 -46z"/>
<path d="M2370 1655 c7 -8 17 -15 22 -15 6 0 5 7 -2 15 -7 8 -17 15 -22 15 -6
0 -5 -7 2 -15z"/>
<path d="M3270 1540 c0 -19 3 -21 12 -12 9 9 9 15 0 24 -9 9 -12 7 -12 -12z"/>
<path d="M3177 1523 c-9 -9 -9 -55 1 -69 4 -7 18 -14 32 -15 33 -5 40 -55 11
-90 -27 -33 -51 -17 -72 47 -10 26 -21 50 -26 51 -6 2 -10 -29 -11 -73 -1 -94
-16 -118 -59 -94 -47 27 -96 199 -60 213 7 4 6 6 -5 6 -33 2 -48 -27 -48 -95
0 -89 30 -143 89 -157 38 -9 91 20 98 54 6 30 17 37 28 19 10 -17 43 -11 69
13 21 18 27 33 30 82 2 33 7 69 12 80 7 18 6 19 -9 6 -15 -12 -20 -11 -40 8
-25 23 -30 25 -40 14z m37 -36 c12 -19 3 -32 -19 -24 -17 7 -21 51 -3 45 6 -2
16 -12 22 -21z"/>
<path d="M1721 1472 c-64 -90 -38 -162 59 -162 19 0 30 -5 30 -14 0 -26 50
-56 92 -56 44 0 93 29 103 60 4 14 15 20 36 20 l29 0 -25 -50 c-30 -59 -31
-72 -6 -87 17 -10 22 -7 42 33 13 24 28 44 33 44 5 0 14 7 20 15 14 19 83 47
90 37 3 -5 -5 -19 -18 -33 -72 -78 -39 -159 60 -145 24 3 46 1 49 -4 11 -18
81 -11 100 10 16 18 19 18 30 4 7 -10 27 -17 53 -18 37 -1 41 -3 36 -21 -16
-51 -26 -64 -77 -104 -60 -46 -67 -57 -67 -106 0 -34 13 -45 51 -45 41 0 117
101 134 179 4 19 25 54 48 78 40 43 90 133 80 143 -3 3 -17 -10 -32 -29 -64
-83 -60 -82 -60 -26 0 28 3 66 8 86 5 21 5 43 1 49 -17 27 -36 -1 -53 -73 -13
-51 -26 -82 -43 -98 -21 -20 -27 -21 -35 -9 -9 14 -8 29 7 121 5 28 2 37 -10
42 -13 5 -21 -4 -35 -36 -10 -23 -21 -54 -24 -68 -9 -36 -52 -80 -71 -73 -22
8 -20 17 9 60 26 38 41 96 30 113 -3 6 -19 11 -34 11 -22 0 -35 -9 -56 -40
-23 -34 -27 -47 -22 -86 4 -43 3 -45 -17 -40 -11 3 -27 6 -33 6 -20 0 -15 45
9 94 18 39 20 47 8 61 -14 17 -61 17 -102 0 -14 -6 -18 -2 -18 18 0 31 -16 43
-36 27 -8 -7 -28 -14 -44 -16 -25 -3 -30 0 -30 17 0 24 -21 33 -55 25 -31 -8
-33 -39 -4 -59 17 -13 19 -19 9 -37 -20 -37 -78 -51 -104 -24 -23 22 -20 52 9
90 50 65 20 74 -45 14 -32 -30 -52 -40 -77 -40 -39 0 -40 5 -11 88 15 44 19
65 11 73 -7 7 -17 2 -32 -19z m279 -101 c0 -20 -13 -41 -25 -41 -18 0 -26 25
-12 39 13 13 37 15 37 2z m354 -145 c-10 -20 -21 -36 -26 -36 -11 0 -10 4 8
50 10 25 20 38 26 32 5 -5 2 -23 -8 -46z m142 -251 c-9 -34 -46 -75 -68 -75
-21 0 -21 2 -7 32 8 19 64 68 77 68 2 0 1 -11 -2 -25z"/>
<path d="M3332 1441 c-10 -6 -10 -10 3 -21 18 -15 42 0 31 19 -8 13 -16 14
-34 2z"/>
</g>
</svg>
